<?xml version="1.0" encoding="UTF-8" standalone="no"?>
<!-- Created with Inkscape (http://www.inkscape.org/) -->

<svg
   xmlns:dc="http://purl.org/dc/elements/1.1/"
   xmlns:cc="http://creativecommons.org/ns#"
   xmlns:rdf="http://www.w3.org/1999/02/22-rdf-syntax-ns#"
   xmlns:svg="http://www.w3.org/2000/svg"
   xmlns="http://www.w3.org/2000/svg"
   xmlns:sodipodi="http://sodipodi.sourceforge.net/DTD/sodipodi-0.dtd"
   xmlns:inkscape="http://www.inkscape.org/namespaces/inkscape"
   width="210mm"
   height="297mm"
   viewBox="0 0 744.09448819 1052.3622047"
   id="svg3368"
   version="1.1"
   inkscape:version="0.91 r13725"
   sodipodi:docname="baraKORvTILLnamnlitenbara.svg">
  <defs
     id="defs3370" />
  <sodipodi:namedview
     id="base"
     pagecolor="#ffffff"
     bordercolor="#666666"
     borderopacity="1.0"
     inkscape:pageopacity="0.0"
     inkscape:pageshadow="2"
     inkscape:zoom="3.959798"
     inkscape:cx="50.703056"
     inkscape:cy="988.83268"
     inkscape:document-units="px"
     inkscape:current-layer="layer1"
     showgrid="false"
     inkscape:window-width="1366"
     inkscape:window-height="745"
     inkscape:window-x="-8"
     inkscape:window-y="-8"
     inkscape:window-maximized="1" />
  <metadata
     id="metadata3373">
    <rdf:RDF>
      <cc:Work
         rdf:about="">
        <dc:format>image/svg+xml</dc:format>
        <dc:type
           rdf:resource="http://purl.org/dc/dcmitype/StillImage" />
        <dc:title></dc:title>
      </cc:Work>
    </rdf:RDF>
  </metadata>
  <g
     inkscape:label="Layer 1"
     inkscape:groupmode="layer"
     id="layer1">
    <g
       id="g4166"
       transform="matrix(0.22522325,0,0,0.22522325,-20.627283,-16.581499)">
      <path
         id="path4305"
         d="m 137.41797,80.695312 -10,27.999998 9.34375,18.31836 0,0.002 1.94336,3.80665 0.19922,-0.13086 c 2.67544,-1.93583 5.27583,-3.63054 7.82812,-5.11914 l 0.1836,-0.1211 -9.49805,-44.755858 z m 9.31445,44.876958 -7.82812,5.11914 c -3.88939,2.81418 -7.93714,6.11987 -12.25586,10.06445 -0.62664,0.8491 -1.22594,1.679 -1.80469,2.49219 -8.37918,11.77327 -11.96522,19.95131 -17.24805,29.40234 -1.36288,5.1448 -2.18696,10.20042 -2.41601,15.15625 l 10.90625,1.82617 6.42187,4.34961 2.69141,7.04297 -0.6211,6.21289 -2.90039,5.5918 -9.71679,3.46484 c 1.09201,2.52183 2.21737,5.04458 3.61718,7.56641 l 3.40235,-0.90625 25.61719,-8.41016 18.91601,-11.44922 c 9.71202,-7.11217 14.11835,-14.5353 30.23828,-19.67578 l -2.82617,33.59375 -0.90234,10.72852 -3.73633,10.55859 -6.16992,17.4375 -2.58008,7.29102 -61.95313,-39.15625 c 2.02006,3.63699 4.61906,7.27317 8.58008,10.91015 6.4575,6.28673 11.19737,9.99735 16.1543,14.03321 l 21.125,11.64843 24.88867,3.96875 56.29688,-103.38086 c -3.5857,-23.9622 -36.6771,-38.02513 -36.86524,-38.10742 -12.70256,-5.88505 -25.40484,-7.645 -38.10742,-5.79883 -7.0898,1.72573 -13.83418,4.2908 -20.92383,8.42579 z m 95.89649,35.48046 -11.47461,22.67969 18.35937,3.31641 0.6875,-0.39063 -7.11914,-19.36718 19.54297,7.42187 -19.99609,-13.66016 z m 19.99609,13.66016 3.88867,2.65625 1.24219,-0.70703 -5.13086,-1.94922 z m 3.88867,2.65625 -16.3125,9.28906 0.20313,0.55078 -0.89063,-0.16015 -0.28125,0.16015 0.0293,0.63477 11.22461,5.94141 2.1289,-3.51172 0.17188,0.0859 c 1.80742,-3.93712 3.52519,-7.94137 5.12891,-12.03126 l -1.40235,-0.95898 z m -3.72656,12.99024 c -4.32449,9.42006 -9.19037,18.43305 -14.35547,27.22265 l 0.21484,0.38086 -0.38281,-0.0898 c -13.05536,22.17535 -28.03352,42.91031 -41.25781,64.95898 0,0 -0.14336,0.0601 -0.49219,0.0274 l -0.15625,0.25585 14.31836,18.35547 18.22461,15.32618 16.61719,8.40234 -2.47852,25.73633 -4.66992,23.93945 0.57031,0.0781 -0.58593,0 0.0156,-0.0781 -12.31641,-1.67773 -8.49414,5.27148 0.58594,4.68555 4.68555,2.34375 8.78711,-1.75782 4.09961,2.34375 -0.58594,3.80664 -4.68555,6.73633 1.46485,3.51563 4.68554,-0.29297 7.61524,-8.49414 -0.29297,11.13086 6.73633,4.09961 2.63672,-5.56446 -2.92969,-25.18945 0,-25.48047 4.51172,-20.42187 7.94336,4.01562 18.6914,5.44727 -15.74219,-3.95508 -2.94921,-1.49219 1.60547,30.46485 c -3.00086,7.93605 -7.8018,21.82438 -9.76563,31.19336 3.45106,8.46101 4.44627,9.18026 7.12891,6.88281 l 4.97851,-8.78711 c 1.39287,4.51872 1.36118,19.44002 5.56641,19.03711 7.83263,-4.07674 5.24703,-10.99317 4.97851,-17.2793 l 8.78711,11.42188 4.68555,-4.68555 -1.75781,-7.9082 -8.78711,-12.00977 -3.51367,-13.76562 -1.17188,-11.42188 4.39453,-13.76758 1.56836,-3.92578 52.70508,13.24219 19.05859,4.125 13.88282,1.67578 29.08398,3.50977 53.01953,-0.41407 7.25,-1.75 -1.125,30.10742 -3.22265,6.44336 -10.54493,-1.75586 -9.07812,-0.29296 -1.46485,7.02929 c 2.01002,3.50914 4.07535,6.82397 7.61524,4.97852 l 7.9082,-3.2207 2.63477,3.51367 c -3.00467,5.58777 -6.70894,11.48674 -2.92774,14.05859 l 3.51368,2.92969 c 4.67208,-1.77395 8.7401,-7.47457 8.78711,-14.64453 l 4.97851,14.64453 4.98047,-0.58594 2.05078,-8.49414 -4.11328,-57.12305 18.79492,-4.53711 7.57617,-3.18554 28.87305,-12.14063 25.26758,-15.74023 25.26758,-28.16602 19.05468,-33.55078 c 3.60243,-11.30304 1.79736,-15.84706 1.24219,-21.95312 l -2.74414,-3.61719 -7.4375,-9.13477 -16.32812,-11.27343 -23.19727,-2.89844 -36.86523,7.04101 -31.06446,15.74024 -34.38086,13.66797 -22.78125,3.31445 -34.79492,-2.07031 -31.06445,-9.11328 -99.13672,-49.39453 z m 329.61328,34.98632 1.06836,0.73828 6.36914,8.39649 43.75,-2.18359 -18.21484,-12.67188 -0.002,0 -10.36328,-7.20898 0.63086,-0.22657 -25.38476,5.3418 -0.002,0 -2.05859,0.43359 0.39062,-1.125 27.05469,-4.65039 15.52344,-5.57226 -18.63867,-6.21485 -4.97071,-20.70898 -9.11328,11.18359 -12.83984,-11.18359 -3.72852,32.72266 5.78125,7.0996 4.74805,5.83008 z m -89.52344,124.30274 -0.29101,45.51562 -5.56641,-0.29297 -8.49219,1.46485 -2.34375,7.9082 6.44336,4.39258 4.68555,-3.51563 5.56641,1.75782 0.29297,7.9082 c 0.65825,4.56553 2.27189,7.53786 5.27148,8.20117 l 5.27148,0 c 1.75734,0 2.34375,-2.92969 2.34375,-2.92969 l 0,-7.32226 -2.63671,-5.27149 7.61523,10.83789 5.56445,-0.58593 3.8086,-5.56641 -2.34375,-7.90625 -10.54297,-9.66602 -0.53125,-1.19531 c -0.005,0 -0.84013,-0.0996 -1.33985,-3.01172 l -1.64453,-3.70117 c -1.46157,-5.89138 -2.05004,-12.07482 -1.17187,-18.74609 -1.59772,-6.92472 5.34281,-14.61961 7.32226,-22.25977 l -17.28125,3.98438 z m 17.28125,-3.98438 c -5.24631,28.81235 -5.28195,40.18428 -4.50586,44.70703 l 1.33985,3.01172 3.16601,-47.71875 z M 377.16016,358.4375 c -1.10466,20.32456 -3.1543,39.36133 -3.1543,39.36133 l -3.80859,2.92969 -7.32227,0.8789 -3.22266,0.29297 0,5.27149 3.8086,6.15039 c 0,0 1.46351,0.8789 3.80664,0.8789 2.34317,0 9.37304,-4.09961 9.37304,-4.09961 l 1.75782,2.63477 -3.51563,7.32226 c 0,0 -1.75696,4.10212 1.46485,6.15235 3.22186,2.05028 7.61523,3.2207 7.61523,3.2207 l 2.34375,-7.61523 -0.29297,-8.20118 2.05078,-2.05078 2.63477,1.75782 3.22266,4.39453 0.29296,1.75586 4.97852,3.80859 7.32226,-4.39258 1.17188,-7.32422 -7.9082,-8.78515 -4.09961,-7.0293 2.81445,-26.10547 1.7793,0.67578 c 0,0 1.13501,-2.90426 2.08203,-7.76562 l -3.5332,4.03711 0.0781,-0.71875 -1.5957,-0.54688 0.94726,-1.82422 -3.78711,-1.38867 0.30469,2.3457 -2.62305,-0.89648 -14.98632,-5.125 z m -13.88282,-1.67578 -5.08203,-0.61328 -13.97656,-3.51172 -5.36133,41.35547 -6.15039,2.63476 -7.32226,-0.29101 -5.85743,0.29101 -1.75781,2.63672 0,6.44336 c 0,1.17158 4.68555,3.80859 4.68555,3.80859 l 13.47265,-3.22265 -6.44335,7.0293 -2.63477,7.32226 6.73633,4.10156 6.15039,-0.58593 4.97851,-9.66602 -0.58593,11.42383 5.5664,5.85742 6.73633,-1.75781 0.58594,-5.27149 -3.22266,-28.99609 3.22266,-18.45312 6.25976,-20.53516 z m -156.76367,-73.90234 2.42188,-3.99805 -14.86524,-5.68945 9.32227,-13.5625 -6.58789,-0.64063 5.33398,-7.4668 -1.02734,-3.9375 -2.36914,0.22461 -8.71875,17.23242 -3.69141,-0.58789 -0.5332,0.97852 c 13.98122,15.4717 19.22645,17.30764 20.71484,17.44727 z m -5.40234,-35.29493 4.11914,-0.39062 9.375,-13.12695 -5.45508,-6.82618 -8.80469,17.40235 0.76563,2.9414 z m 8.03906,-20.34375 9.27734,1.47657 6.83594,-9.57227 -7.70898,-8.51758 -8.4043,16.61328 z m 8.4043,-16.61328 11.79883,2.79102 9.34179,-13.07813 -2.93554,-5.20312 -3.37696,2.50781 -0.006,0.004 -6.86914,5.10351 1.21485,-10.24219 -9.16797,18.11719 z m 21.14062,-10.28711 8.59571,15.24024 3.00781,-4.96289 -1.03711,-22.75391 -1.20117,-0.63477 -2.06446,2.89063 -7.30078,10.2207 z m 11.60352,10.27735 0.008,0.16211 10.19336,-16.9668 -0.0137,-0.008 -10.1875,16.8125 z m -3.00781,4.96289 -1.10157,1.82031 2.07422,0.49219 c 0.0568,-0.0965 0.11125,-0.1945 0.16797,-0.29102 l -1.14062,-2.02148 z m -1.10157,1.82031 -16.83593,-3.98242 -4.08985,5.72656 11.90235,13.14844 9.02343,-14.89258 z m -9.02343,14.89258 -0.0547,0.0879 0.18359,0.0547 -0.1289,-0.14258 z m -0.0547,0.0879 -5.16016,-1.51172 -13.52344,-2.15234 -3.82226,5.34961 9.08984,11.37304 3.13086,3.91602 10.28516,-16.97461 z m -10.28516,16.97461 -7.18164,11.85351 0.34375,0.0332 7.01172,-11.66797 -0.17383,-0.21875 z m -7.18164,11.85351 -15.37109,-1.49414 4.89453,18.7793 10.47656,-17.28516 z m -10.47656,17.28516 -0.23242,0.38672 0.37109,0.14258 -0.13867,-0.5293 z m -4.89453,-18.7793 -0.1543,-0.59375 -0.72656,0.50782 0.88086,0.0859 z m -0.1543,-0.59375 19.57617,-13.68164 -18.46484,1.75391 -3.0918,4.32812 1.98047,7.59961 z m -88.53516,-35.22851 c -0.002,-0.004 -0.004,-0.008 -0.006,-0.0117 l -0.008,0.002 0.0137,0.01 z m 64.53321,31.86523 c -10.92026,-13.39052 -15.63053,-27.81648 -38.64453,-39.1914 15.16336,4.99796 30.19964,11.27061 44.81445,21.7539 l -23.20703,-29.82226 -18.48242,6.0664 -4.69336,2.8418 -20.92383,5.56836 c 22.26899,7.14778 42.16646,19.03791 61.13672,32.7832 z m -17.03711,-47.25976 2.50976,-0.82422 -4.42187,-1.63282 1.91211,2.45704 z m 2.50976,-0.82422 25.33594,9.35937 c -4.55149,-3.64356 -6.9424,-9.08746 -9.17187,-14.66601 l -16.16407,5.30664 z m 16.16407,-5.30664 10.34179,-3.39454 -13.70898,-4.64843 c 1.23489,2.5873 2.28298,5.33008 3.36719,8.04297 z m -69.79297,13.94726 c -0.001,-0.003 -0.003,-0.007 -0.004,-0.01 l 0.002,0.01 0.002,0 z m -0.004,-0.01 -3.0918,-12.98243 2.09571,0.72852 0.32422,-1.40625 0.64062,1.74219 -0.96484,-0.33594 -0.60352,2.61719 c 0,0 1.22827,-0.39526 1.92383,-1.3125 l 0.69922,1.90234 2.89844,-0.62109 0.48828,-0.70508 0.0605,0.0215 -0.0469,-0.041 1.36328,-1.96875 0,-2.69141 -1.6582,-3.72851 -3.10547,-1.03516 c 0,0 -2.693,0.62109 -3.72852,0.62109 l 1.21289,3.30274 c -0.68157,-0.60335 -1.52596,-1.25188 -2.60742,-1.95899 l 2.7832,2.4375 0.3711,1.00586 -2.25586,0.9668 -3.57813,-15.02539 c -0.30327,6.58893 0.45011,13.00248 2.41797,19.21289 1.72703,3.08493 3.02556,6.16898 4.36133,9.25391 z m -6.7793,-28.4668 c 1.8e-4,-0.004 0.002,-0.008 0.002,-0.0117 l -0.004,0 0.002,0.0117 z m 19.66602,-44.57031 0.60742,-9.76758 0.20703,-3.31836 1.28125,-20.57617 -12.71679,-10.666018 2.48437,23.197268 -20.294921,7.04101 28.431641,14.08985 z m 2.0957,-33.66211 0.12305,0.10351 0.35547,-0.99414 -0.37695,-0.73633 -0.10157,1.62696 z m 0.10157,-1.62696 0.0215,-0.33984 -0.82812,-1.24219 0.80664,1.58203 z m 11.62109,66.55664 c 0.81794,0.34521 5.17675,1.31091 7.86914,1.65626 l 6.41992,3.93554 3.52149,5.17774 -0.6211,6.41992 -3.10742,4.9707 -7.45508,2.07031 -7.25,-0.20703 -4.76172,-3.72851 -4.9707,-7.04102 0.20703,-6.41992 3.3125,-5.5918 6.83594,-1.24219 z m -0.33008,8.7461 -0.83984,1.16406 0.58398,-0.35547 0.25586,-0.80859 z m -0.25586,0.80859 -0.99609,3.15235 1.78906,2.82617 2.48438,2.07031 3.72851,-0.41406 2.07031,-3.72852 -1.38476,-2.3789 -2.85547,-2.19727 -3.73438,0 -1.10156,0.66992 z"
         style="fill:none;fill-rule:evenodd;stroke:#000000;stroke-width:5.97503567;stroke-linecap:round;stroke-linejoin:round;stroke-miterlimit:4;stroke-dasharray:none;stroke-opacity:1"
         inkscape:connector-curvature="0" />
      <path
         inkscape:connector-curvature="0"
         id="path3355"
         d="m 113.64216,198.27822 c 2.77792,4.54569 2.27285,8.83884 1.01015,5.05077 -1.26269,-3.78808 3.53554,-3.78808 2.52539,-4.79823 -1.01016,-1.01015 -1.26269,5.80838 -1.26269,5.80838 l -2.52539,-1.51523"
         style="fill:none;fill-rule:evenodd;stroke:#000000;stroke-width:1.5;stroke-linecap:butt;stroke-linejoin:miter;stroke-miterlimit:4;stroke-dasharray:none;stroke-opacity:1" />
      <path
         inkscape:connector-curvature="0"
         id="path4157"
         d="m 112.37947,201.81376 c 2.52538,-3.283 2.52538,-3.283 2.52538,-3.283 l 0.25254,2.77792"
         style="fill:none;fill-rule:evenodd;stroke:#000000;stroke-width:1px;stroke-linecap:butt;stroke-linejoin:miter;stroke-opacity:1" />
      <path
         inkscape:connector-curvature="0"
         id="path4159"
         d="m 140.4112,184.13609 c 3.03046,7.07107 4.29315,7.3236 4.29315,7.3236"
         style="fill:none;fill-rule:evenodd;stroke:#000000;stroke-width:2.9000001;stroke-linecap:butt;stroke-linejoin:miter;stroke-miterlimit:4;stroke-dasharray:none;stroke-opacity:1" />
      <path
         inkscape:connector-curvature="0"
         id="path4161"
         d="m 113.38962,200.04599 2.27285,3.03046 1.01015,1.01015"
         style="fill:none;fill-rule:evenodd;stroke:#000000;stroke-width:1.70000005;stroke-linecap:butt;stroke-linejoin:miter;stroke-miterlimit:4;stroke-dasharray:none;stroke-opacity:1" />
    </g>
  </g>
</svg>
